<svg xmlns="http://www.w3.org/2000/svg" width="16" height="16" viewBox="0 0 16 16" fill="none">
<circle cx="8" cy="8" r="8" fill="#FF656C"/>
<path d="M12.0852 5.08088C11.5862 4.55749 10.9272 4.26672 10.2235 4.26672C9.51969 4.26672 8.85432 4.55749 8.36169 5.08088L7.99702 5.46857L7.63234 5.08088C7.13331 4.55749 6.47434 4.26672 5.77058 4.26672C5.06683 4.26672 4.40146 4.55749 3.90883 5.08088C2.97475 6.06949 2.96195 7.66549 3.88323 8.95134C5.47629 11.1935 7.74111 12.5633 7.83707 12.6215C7.88186 12.6538 7.93944 12.6667 7.99702 12.6667C8.0546 12.6667 8.11218 12.6538 8.16336 12.6215C8.25293 12.5633 10.4282 11.1935 12.1044 8.96426C13.0385 7.71718 13.0321 6.08888 12.0852 5.08088Z" fill="white"/>
</svg>