<svg xmlns="http://www.w3.org/2000/svg" width="130" height="37" viewBox="0 0 130 37" fill="none">
<path d="M13.7464 6.71777C6.1579 6.71777 0 12.8757 0 20.4642C0 23.6364 1.11962 26.5599 2.92344 28.9235C3.04785 29.1101 3.23445 29.2967 3.35885 29.4211C3.54545 29.6699 3.79426 29.9187 4.04306 30.1675C6.6555 32.9666 10.0144 35.0814 13.7464 36.201C17.4785 35.0814 20.8373 32.9666 23.4498 30.1675C23.6986 29.9187 23.8852 29.6699 24.134 29.4211C24.2584 29.2345 24.445 29.0479 24.5694 28.9235C26.3732 26.6221 27.4928 23.6986 27.4928 20.4642C27.4928 12.8757 21.3349 6.71777 13.7464 6.71777ZM13.7464 25.6891C10.823 25.6891 8.45933 23.3254 8.45933 20.402C8.45933 17.4785 10.823 15.1149 13.7464 15.1149C16.6699 15.1149 18.9713 17.4785 18.9713 20.402C18.9713 23.3254 16.6699 25.6891 13.7464 25.6891Z" fill="white"/>
<path d="M18.2249 6.4067C19.1579 6.22009 19.8421 5.41148 19.8421 4.41627C19.8421 3.29665 18.9091 2.42584 17.8516 2.42584C17.5406 2.42584 17.2296 2.48804 16.9808 2.61244C16.6076 1.11962 15.3014 0 13.7464 0C12.1914 0 10.8851 1.11962 10.5741 2.61244C10.3253 2.48804 10.0143 2.42584 9.70332 2.42584C8.5837 2.42584 7.71289 3.35885 7.71289 4.41627C7.71289 5.41148 8.3971 6.22009 9.33012 6.4067C10.7607 5.90909 12.2536 5.66029 13.8086 5.66029C15.3636 5.66029 16.7942 5.90909 18.2249 6.4067Z" fill="white"/>
<path d="M37.3205 20.6507H45.7176C46.775 20.6507 47.5836 20.0287 47.5836 18.7224C47.5836 17.4162 46.775 16.7942 45.7176 16.7942H38.3779C38.0047 16.7942 37.7559 16.5454 37.7559 16.2344V12.9378C37.7559 12.5645 38.0047 12.3779 38.3779 12.3779H45.7176C46.775 12.3779 47.5836 11.7559 47.5836 10.4497C47.5836 9.14349 46.775 8.52148 45.7176 8.52148H37.3205C34.4592 8.52148 33.0908 9.7655 33.0908 12.1913V17.043C33.0908 19.4067 34.4592 20.6507 37.3205 20.6507Z" fill="white"/>
<path d="M47.8325 22.2056H39.5598C35.8277 22.2056 33.4019 24.2582 33.4019 27.2438C33.4019 30.1673 35.8277 32.2199 39.5598 32.2199H47.8325C51.5645 32.2199 54.0526 30.1673 54.0526 27.2438C54.0526 24.2582 51.5645 22.2056 47.8325 22.2056ZM47.8325 28.3635H39.5598C38.6267 28.3635 38.1291 27.8659 38.1291 27.2438C38.1291 26.5596 38.6267 26.062 39.5598 26.062H47.8325C48.7655 26.062 49.2631 26.5596 49.2631 27.2438C49.2631 27.8659 48.7655 28.3635 47.8325 28.3635Z" fill="white"/>
<path d="M54.8611 12.4401H53.5549V9.8899C53.5549 8.77028 52.6219 7.96167 51.1913 7.96167C49.8229 7.96167 48.8276 8.77028 48.8276 9.8899V19.6554C48.8276 20.7751 49.8229 21.5837 51.1913 21.5837C52.5597 21.5837 53.5549 20.7751 53.5549 19.6554V16.9808H54.8611C55.9186 16.9808 56.7894 16.0478 56.7894 14.6794C56.7894 13.4354 55.9186 12.4401 54.8611 12.4401Z" fill="white"/>
<path d="M78.3108 22.8278H59.0907C57.9711 22.8278 57.0381 22.0813 57.0381 20.7129C57.0381 19.4689 57.9711 18.6603 59.0907 18.6603H78.3108C79.4304 18.6603 80.3634 19.4689 80.3634 20.7129C80.3634 22.0813 79.4926 22.8278 78.3108 22.8278ZM74.3921 16.0479V13.5598C74.3921 13.1244 74.1433 12.8756 73.7701 12.8756H60.3969C59.2151 12.8756 58.2821 12.1292 58.2821 10.7608C58.2821 9.39235 59.2773 8.58374 60.3969 8.58374H74.7653C77.6266 8.58374 79.0572 10.0766 79.0572 12.689V16.1101C79.0572 17.2297 78.1242 18.0383 76.6936 18.0383C75.263 18.0383 74.3921 17.1675 74.3921 16.0479ZM63.1338 25.5024V27.1818C63.1338 27.4928 63.3826 27.7416 63.7558 27.7416H77.5022C78.684 27.7416 79.617 28.488 79.617 29.8565C79.617 31.2249 78.6218 31.9713 77.5022 31.9713H62.8228C59.9615 31.9713 58.4687 30.7895 58.4687 28.177V25.5024C58.4687 24.3828 59.4017 23.5742 60.8323 23.5742C62.1386 23.5742 63.1338 24.445 63.1338 25.5024Z" fill="white"/>
<path d="M82.7893 27.6794V11.8182C82.7893 9.64115 83.9089 8.52153 86.1482 8.52153H92.306C94.5453 8.52153 95.6649 9.64115 95.6649 11.8182V27.6794C95.6649 29.8565 94.5453 30.9761 92.306 30.9761H86.1482C83.8467 30.9761 82.7893 29.8565 82.7893 27.6794ZM91.1864 26.1866V13.311C91.1864 13 90.9998 12.8134 90.751 12.8134H87.7032C87.4544 12.8134 87.2678 13 87.2678 13.311V26.1244C87.2678 26.4354 87.4544 26.622 87.7032 26.622H90.751C90.9998 26.6842 91.1864 26.4354 91.1864 26.1866ZM98.4639 30.2297V10.0766C98.4639 8.89474 99.4592 8.02393 100.828 8.02393C102.196 8.02393 103.191 8.95694 103.191 10.0766V16.6699H104.497C105.555 16.6699 106.426 17.6651 106.426 18.9713C106.426 20.3397 105.555 21.3349 104.497 21.3349H103.191V30.2919C103.191 31.4737 102.258 32.3445 100.828 32.3445C99.4592 32.2823 98.4639 31.4115 98.4639 30.2297Z" fill="white"/>
<path d="M118.493 13.4976H119.426V9.88995C119.426 8.83254 120.297 8.14833 121.541 8.14833C122.785 8.14833 123.655 8.83254 123.655 9.88995V20.7751C123.655 21.8325 122.847 22.5167 121.541 22.5167C120.234 22.5167 119.426 21.7703 119.426 20.7129V17.5407H118.493C117.995 17.5407 117.498 17.2919 117.187 16.8565C115.88 19.7177 113.641 22.0191 110.469 23.4498C109.474 23.8852 108.354 23.6364 107.794 22.6411C107.234 21.6459 107.608 20.4641 108.478 20.0287C109.909 19.4067 111.091 18.5359 112.024 17.4785H109.722C108.852 17.4785 108.043 16.9809 108.043 15.799C108.043 14.7416 108.789 14.1196 109.722 14.1196H113.765C113.89 13.6842 114.014 13.2488 114.014 12.8134C114.076 12.4402 113.89 12.1914 113.517 12.1914H109.785C108.727 12.1914 107.981 11.5694 107.981 10.3876C107.981 9.20574 108.727 8.52153 109.785 8.52153H114.263C117.249 8.52153 118.617 9.95216 118.182 13.1866C118.182 13.311 118.182 13.4354 118.12 13.5598C118.306 13.4976 118.368 13.4976 118.493 13.4976ZM126.89 31.8469C124.029 31.2249 120.608 29.6699 118.368 27.866C116.316 29.9187 113.579 31.4115 110.655 31.9713C109.66 32.1579 108.541 31.7225 108.167 30.4785C107.856 29.2966 108.416 28.3014 109.474 27.9904C112.646 27.1818 115.258 25.3158 116.564 22.8899C117 22.1435 118.057 21.6459 119.364 22.0191C120.67 22.4545 121.23 23.6986 120.794 24.5694V24.6316C122.66 26.1244 125.335 27.3062 128.009 27.9282C129.005 28.177 129.627 29.1722 129.316 30.3541C129.005 31.5981 127.885 32.0957 126.89 31.8469ZM124.713 21.4593V9.76555C124.713 8.70814 125.584 8.02393 126.89 8.02393C128.196 8.02393 129.067 8.70814 129.067 9.76555V21.4593C129.067 22.5167 128.196 23.201 126.89 23.201C125.584 23.201 124.713 22.5167 124.713 21.4593Z" fill="white"/>
</svg>