<svg xmlns="http://www.w3.org/2000/svg" width="16" height="16" viewBox="0 0 16 16" fill="none">
<circle cx="8" cy="8" r="8" fill="#FFA264"/>
<path d="M12.7425 7.77532C13.0201 6.75948 12.2314 6.22317 11.7393 6.22317H9.84596C9.84596 6.22317 10.2119 5.66793 10.6031 4.66471C10.9943 3.66149 9.74501 2.43744 9.22132 3.28292C8.04774 5.80043 7.1013 6.74055 7.1013 6.74055H6.24219V11.7882C6.24219 11.7882 9.43584 11.8008 10.6157 11.8008C11.0696 11.8008 11.1219 11.7237 11.4252 11.2763C11.4465 11.2448 11.4691 11.2114 11.4932 11.1762C11.9727 10.4632 12.3702 9.1445 12.7425 7.77532Z" fill="white"/>
<path d="M3.49352 6.15991H5.22412C5.38251 6.15991 5.51744 6.31507 5.51744 6.49722V11.8941C5.51744 12.083 5.38838 12.2314 5.22412 12.2314H3.49352C3.32926 12.2314 3.2002 12.083 3.2002 11.8941V6.49722C3.2002 6.31507 3.32926 6.15991 3.49352 6.15991Z" fill="white"/>
</svg>